<svg width="150" height="150" viewBox="0 0 150 150" fill="none" xmlns="http://www.w3.org/2000/svg">
<path d="M128.221 76.6583L86.0332 118.846C85.5934 119.286 84.9969 119.533 84.375 119.533C83.7531 119.533 83.1566 119.286 82.7168 118.846C82.277 118.406 82.0299 117.81 82.0299 117.188C82.0299 116.566 82.277 115.969 82.7168 115.529L120.902 77.3438H23.4375C22.8159 77.3438 22.2198 77.0969 21.7802 76.6574C21.3407 76.2178 21.0938 75.6217 21.0938 75.0001C21.0938 74.3785 21.3407 73.7823 21.7802 73.3428C22.2198 72.9033 22.8159 72.6563 23.4375 72.6563H120.902L82.7168 34.4708C82.277 34.031 82.0299 33.4345 82.0299 32.8126C82.0299 32.1906 82.277 31.5942 82.7168 31.1544C83.1566 30.7146 83.7531 30.4675 84.375 30.4675C84.9969 30.4675 85.5934 30.7146 86.0332 31.1544L128.221 73.3419C128.439 73.5596 128.611 73.818 128.729 74.1026C128.847 74.3871 128.908 74.6921 128.908 75.0001C128.908 75.3081 128.847 75.6131 128.729 75.8976C128.611 76.1821 128.439 76.4406 128.221 76.6583Z" fill="white"/>
</svg>
