<svg width="30" height="30" viewBox="0 0 30 30" fill="none" xmlns="http://www.w3.org/2000/svg">
    <path d="M9.85643 12.7876L15.0002 4.32886L20.1439 12.7901H9.85643V12.7876ZM21.8639 26.5376C20.5656 26.5376 19.4656 26.0876 18.5639 25.1876C17.6623 24.2851 17.2114 23.1851 17.2114 21.8876C17.2114 20.5876 17.6623 19.4834 18.5639 18.5751C19.4656 17.6668 20.5656 17.2126 21.8639 17.2126C23.1623 17.2126 24.266 17.6668 25.1752 18.5751C26.0835 19.4834 26.5377 20.5876 26.5377 21.8876C26.5377 23.1851 26.0835 24.2851 25.1752 25.1876C24.2668 26.0876 23.1639 26.5376 21.8639 26.5376ZM4.71143 25.9126V17.8376H12.7889V25.9126H4.71143Z"
          fill="#000c29"/>
</svg>
