<svg width="30" height="30" viewBox="0 0 30 30" fill="none" xmlns="http://www.w3.org/2000/svg">
<path d="M18.5293 23.7809C18.3888 23.9217 18.1982 24.001 17.9994 24.0012C17.8005 24.0015 17.6096 23.9228 17.4688 23.7824L9.24279 15.5849C9.16569 15.5082 9.10451 15.4171 9.06276 15.3167C9.021 15.2163 8.99951 15.1086 8.99951 14.9999C8.99951 14.8912 9.021 14.7835 9.06276 14.6831C9.10451 14.5827 9.16569 14.4916 9.24279 14.4149L17.4688 6.21889C17.5381 6.14737 17.6209 6.09035 17.7125 6.05118C17.804 6.01201 17.9025 5.99146 18.0021 5.99074C18.1016 5.99002 18.2004 6.00914 18.2925 6.04698C18.3846 6.08482 18.4683 6.14063 18.5386 6.21114C18.6089 6.28166 18.6645 6.36547 18.702 6.4577C18.7396 6.54992 18.7585 6.6487 18.7575 6.74828C18.7564 6.84786 18.7356 6.94624 18.6962 7.03769C18.6568 7.12913 18.5995 7.21181 18.5278 7.2809L10.7818 14.9999L18.5278 22.7204C18.6686 22.8608 18.7478 23.0515 18.7481 23.2503C18.7484 23.4492 18.6697 23.6401 18.5293 23.7809Z" fill="#0F307D"/>
</svg>
