<svg width="30" height="30" viewBox="0 0 30 30" fill="none" xmlns="http://www.w3.org/2000/svg">
<path d="M12.9688 6.22059C13.1093 6.07978 13.2999 6.00053 13.4988 6.00024C13.6977 5.99996 13.8885 6.07868 14.0293 6.21909L22.2553 14.4166C22.3322 14.4932 22.3932 14.5843 22.4348 14.6845C22.4764 14.7848 22.4979 14.8923 22.4979 15.0008C22.4979 15.1094 22.4764 15.2169 22.4348 15.3171C22.3932 15.4174 22.3322 15.5084 22.2553 15.5851L14.0293 23.7826C13.8877 23.919 13.6981 23.9944 13.5015 23.9924C13.3048 23.9904 13.1168 23.9112 12.978 23.772C12.8391 23.6327 12.7605 23.4445 12.7591 23.2478C12.7576 23.0512 12.8335 22.8618 12.9703 22.7206L20.7178 15.0001L12.9703 7.28109C12.8295 7.14064 12.7503 6.95002 12.75 6.75115C12.7497 6.55227 12.8284 6.36143 12.9688 6.22059ZM6.96884 6.22059C7.10929 6.07978 7.29991 6.00053 7.49878 6.00024C7.69765 5.99996 7.8885 6.07868 8.02934 6.21909L16.2553 14.4166C16.3322 14.4932 16.3932 14.5843 16.4348 14.6845C16.4764 14.7848 16.4979 14.8923 16.4979 15.0008C16.4979 15.1094 16.4764 15.2169 16.4348 15.3171C16.3932 15.4174 16.3322 15.5084 16.2553 15.5851L8.02934 23.7826C7.8877 23.919 7.69814 23.9944 7.50148 23.9924C7.30483 23.9904 7.11682 23.9112 6.97796 23.772C6.8391 23.6327 6.76048 23.4445 6.75906 23.2478C6.75763 23.0512 6.83351 22.8618 6.97034 22.7206L14.7178 15.0001L6.97034 7.28109C6.82954 7.14064 6.75028 6.95002 6.75 6.75115C6.74972 6.55227 6.82844 6.36143 6.96884 6.22059Z" fill="#0F307D"/>
</svg>
