<svg width="30" height="30" viewBox="0 0 30 30" fill="none" xmlns="http://www.w3.org/2000/svg">
<path d="M17.0293 23.7809C16.8888 23.9217 16.6982 24.001 16.4994 24.0012C16.3005 24.0015 16.1096 23.9228 15.9688 23.7824L7.74279 15.5849C7.66569 15.5082 7.60451 15.4171 7.56276 15.3167C7.521 15.2163 7.49951 15.1086 7.49951 14.9999C7.49951 14.8912 7.521 14.7835 7.56276 14.6831C7.60451 14.5827 7.66569 14.4916 7.74279 14.4149L15.9688 6.21889C16.0381 6.14737 16.1209 6.09035 16.2125 6.05118C16.304 6.01201 16.4025 5.99146 16.5021 5.99074C16.6016 5.99002 16.7004 6.00914 16.7925 6.04698C16.8846 6.08482 16.9683 6.14063 17.0386 6.21114C17.1089 6.28166 17.1645 6.36547 17.202 6.4577C17.2396 6.54992 17.2585 6.6487 17.2575 6.74828C17.2564 6.84786 17.2356 6.94624 17.1962 7.03769C17.1568 7.12913 17.0995 7.21181 17.0278 7.2809L9.28179 14.9999L17.0278 22.7204C17.1686 22.8608 17.2478 23.0515 17.2481 23.2503C17.2484 23.4492 17.1697 23.6401 17.0293 23.7809ZM23.0293 23.7809C22.9597 23.8508 22.877 23.9064 22.786 23.9443C22.6949 23.9822 22.5973 24.0018 22.4986 24.002C22.4 24.0021 22.3022 23.9828 22.2111 23.9451C22.1199 23.9074 22.0371 23.8521 21.9673 23.7824L13.7413 15.5849C13.6642 15.5082 13.603 15.4171 13.5613 15.3167C13.5195 15.2163 13.498 15.1086 13.498 14.9999C13.498 14.8912 13.5195 14.7835 13.5613 14.6831C13.603 14.5827 13.6642 14.4916 13.7413 14.4149L21.9673 6.21889C22.0366 6.14737 22.1194 6.09035 22.211 6.05118C22.3025 6.01201 22.401 5.99146 22.5006 5.99074C22.6001 5.99002 22.6989 6.00914 22.791 6.04698C22.8831 6.08482 22.9668 6.14063 23.0371 6.21114C23.1074 6.28166 23.163 6.36547 23.2005 6.4577C23.2381 6.54992 23.257 6.6487 23.256 6.74828C23.2549 6.84786 23.2341 6.94624 23.1947 7.03769C23.1553 7.12913 23.098 7.21181 23.0263 7.2809L15.2803 14.9999L23.0263 22.7204C23.1671 22.8608 23.2463 23.0515 23.2466 23.2503C23.2469 23.4492 23.1697 23.6401 23.0293 23.7809Z" fill="#0F307D"/>
</svg>
