<svg width="30" height="30" viewBox="0 0 30 30" fill="none" xmlns="http://www.w3.org/2000/svg">
<path d="M11.4688 6.22059C11.6093 6.07978 11.7999 6.00053 11.9988 6.00024C12.1977 5.99996 12.3885 6.07868 12.5293 6.21909L20.7553 14.4166C20.8322 14.4932 20.8932 14.5843 20.9348 14.6845C20.9764 14.7848 20.9979 14.8923 20.9979 15.0008C20.9979 15.1094 20.9764 15.2169 20.9348 15.3171C20.8932 15.4174 20.8322 15.5084 20.7553 15.5851L12.5293 23.7826C12.3877 23.919 12.1981 23.9944 12.0015 23.9924C11.8048 23.9904 11.6168 23.9112 11.478 23.772C11.3391 23.6327 11.2605 23.4445 11.2591 23.2478C11.2576 23.0512 11.3335 22.8618 11.4703 22.7206L19.2178 15.0001L11.4703 7.28109C11.3295 7.14064 11.2503 6.95002 11.25 6.75115C11.2497 6.55227 11.3284 6.36143 11.4688 6.22059Z" fill="#0F307D"/>
</svg>
