<svg width="20" height="20" viewBox="0 0 20 20" fill="none" xmlns="http://www.w3.org/2000/svg">
<path d="M13.2426 2.5401C13.8018 1.98082 14.5602 1.66658 15.3511 1.6665C16.1419 1.66643 16.9004 1.98052 17.4597 2.53968C18.019 3.09885 18.3332 3.85728 18.3333 4.64814C18.3334 5.43899 18.0193 6.19749 17.4601 6.75677L16.7168 7.50093L12.5001 3.28343L13.2426 2.5401ZM11.6168 4.1676L3.28347 12.5001C2.94496 12.8386 2.70697 13.2644 2.59597 13.7301L1.68347 17.5651C1.65876 17.669 1.66108 17.7774 1.6902 17.8802C1.71931 17.9829 1.77427 18.0765 1.84981 18.1519C1.92535 18.2274 2.01896 18.2822 2.12172 18.3112C2.22448 18.3402 2.33295 18.3424 2.4368 18.3176L6.27097 17.4043C6.73696 17.2934 7.16304 17.0554 7.5018 16.7168L15.8335 8.38427L11.6168 4.1676Z" fill="#0F307D"/>
</svg>
