<svg width="30" height="30" viewBox="0 0 30 30" fill="none" xmlns="http://www.w3.org/2000/svg">
    <path d="M14.8781 1.22217C12.6352 1.22217 10.5176 1.75842 8.64609 2.70904L9.34729 3.92369C11.0514 3.04262 12.9848 2.54451 15.0335 2.54451C17.1427 2.54451 19.1296 3.07273 20.8702 4.00303L21.4987 2.91436C19.5337 1.836 17.2777 1.22217 14.8781 1.22217ZM7.69008 3.24342C3.87234 5.58213 1.28191 9.72746 1.10742 14.49H2.6291C2.78625 10.2748 5.05008 6.59328 8.39766 4.46914L7.69008 3.24342ZM22.4371 3.47943L21.8123 4.56148C25.0813 6.69898 27.2832 10.3352 27.4379 14.49H28.6491C28.4803 9.88338 26.051 5.85471 22.4371 3.47943ZM14.6078 3.64818C10.7991 3.78857 7.47527 5.80461 5.53113 8.80174L8.23266 10.3614C8.02844 10.6644 7.84458 10.9807 7.68229 11.3081L4.98035 9.74832C4.17176 11.3075 3.71455 13.079 3.71455 14.9588C3.71455 16.8583 4.18154 18.6472 5.00607 20.2182L7.69652 18.6649C7.86012 18.9916 8.04523 19.3072 8.25064 19.6094L5.5616 21.162C7.50984 24.1334 10.8189 26.1294 14.6081 26.2691V23.2156C14.7654 23.2245 14.9239 23.2296 15.0834 23.2296C15.292 23.2296 15.4985 23.2218 15.7032 23.2066V26.2576C19.4334 26.0407 22.6751 24.0236 24.5728 21.06L21.9565 19.5494C22.1586 19.2465 22.3412 18.9295 22.5025 18.6002L25.1181 20.1102C25.9076 18.5656 26.3529 16.8148 26.3529 14.9589C26.3529 13.1226 25.9165 11.3895 25.1426 9.85695L22.5164 11.3731C22.3569 11.0443 22.1756 10.7266 21.9738 10.4219L24.6022 8.90451C22.7087 5.91529 19.4529 3.87775 15.7031 3.65967V6.73842C15.4985 6.72318 15.2919 6.71527 15.0834 6.71527C14.9238 6.71527 14.7654 6.72025 14.6081 6.72922V3.64818H14.6078ZM12.4294 7.71588L13.6175 9.77516C14.0919 9.64336 14.5821 9.57667 15.0745 9.57693C15.5798 9.57693 16.0689 9.64631 16.5329 9.77545L17.7211 7.71588L20.073 9.06811L18.8804 11.1355C19.5732 11.8169 20.0839 12.6829 20.3326 13.6541H22.7187V16.3586H20.3316C20.0824 17.3289 19.5714 18.1938 18.8787 18.8746L20.073 20.9447L17.7211 22.2969L16.5308 20.2336C16.0566 20.3653 15.5667 20.4319 15.0746 20.4317C14.5707 20.4317 14.0828 20.3625 13.6197 20.234L12.4296 22.2969L10.0778 20.9446L11.2714 18.8756C10.5783 18.1947 10.0671 17.3293 9.81768 16.3586H7.43191V13.6542H9.8165C10.0653 12.6825 10.5763 11.8161 11.2696 11.1343L10.0777 9.06805L12.4294 7.71582V7.71588ZM1.11 15.585C1.30717 20.331 3.90357 24.4573 7.7192 26.7814L8.4648 25.49C5.12232 23.399 2.84332 19.7622 2.6352 15.585L1.11 15.585ZM27.4321 15.585C27.227 19.7022 25.0104 23.2948 21.7464 25.3995L22.4085 26.5463C26.0202 24.1852 28.4557 20.1753 28.6464 15.5851H27.432L27.4321 15.585ZM20.8004 25.9511C19.0766 26.8585 17.1147 27.3729 15.0336 27.3729C13.0131 27.3729 11.1046 26.8883 9.41766 26.0298L8.67668 27.313C10.5408 28.254 12.6473 28.7846 14.8781 28.7846C17.2656 28.7846 19.5111 28.1772 21.469 27.1091L20.8004 25.9511Z"
          fill="#000c29"/>
</svg>
