<svg width="30" height="30" viewBox="0 0 30 30" fill="none" xmlns="http://www.w3.org/2000/svg">
    <path d="M15.0001 27.1875C8.27995 27.1875 2.81256 21.7248 2.81256 15.0105C2.80679 13.2206 3.19644 11.4514 3.95368 9.82943C4.71091 8.20749 5.81705 6.77282 7.19303 5.62793L8.18327 4.80762L9.83385 6.7834L8.84362 7.60371C7.7582 8.5079 6.88588 9.64066 6.28899 10.9211C5.69209 12.2014 5.38535 13.5979 5.39069 15.0105C5.39069 20.3068 9.70143 24.6158 15.0001 24.6158C20.2987 24.6158 24.6094 20.3068 24.6094 15.0105C24.6093 13.5939 24.2948 12.195 23.6886 10.9147C23.0823 9.63433 22.1995 8.50449 21.1038 7.60664L20.1077 6.78633L21.7483 4.80469L22.7444 5.625C24.1332 6.76329 25.2521 8.19557 26.0205 9.81858C26.7888 11.4416 27.1874 13.2149 27.1876 15.0105C27.1876 21.7248 21.7202 27.1875 15.0001 27.1875Z"
          fill="#000c29"/>
    <path d="M13.7109 2.8125H16.2891V15.9375H13.7109V2.8125Z" fill="#000c29"/>
</svg>
