<svg width="30" height="30" viewBox="0 0 30 30" fill="none" xmlns="http://www.w3.org/2000/svg">
    <path d="M9.0625 7.5C8.81386 7.5 8.5754 7.59877 8.39959 7.77459C8.22377 7.9504 8.125 8.18886 8.125 8.4375V17.8125C8.125 18.0611 8.22377 18.2996 8.39959 18.4754C8.5754 18.6512 8.81386 18.75 9.0625 18.75C9.31114 18.75 9.5496 18.6512 9.72541 18.4754C9.90123 18.2996 10 18.0611 10 17.8125V8.4375C10 8.18886 9.90123 7.9504 9.72541 7.77459C9.5496 7.59877 9.31114 7.5 9.0625 7.5ZM15 7.5C14.7514 7.5 14.5129 7.59877 14.3371 7.77459C14.1613 7.9504 14.0625 8.18886 14.0625 8.4375V14.0625C14.0625 14.3111 14.1613 14.5496 14.3371 14.7254C14.5129 14.9012 14.7514 15 15 15C15.2486 15 15.4871 14.9012 15.6629 14.7254C15.8387 14.5496 15.9375 14.3111 15.9375 14.0625V8.4375C15.9375 8.18886 15.8387 7.9504 15.6629 7.77459C15.4871 7.59877 15.2486 7.5 15 7.5ZM20 8.4375C20 8.18886 20.0988 7.9504 20.2746 7.77459C20.4504 7.59877 20.6889 7.5 20.9375 7.5C21.1861 7.5 21.4246 7.59877 21.6004 7.77459C21.7762 7.9504 21.875 8.18886 21.875 8.4375V20.3125C21.875 20.5611 21.7762 20.7996 21.6004 20.9754C21.4246 21.1512 21.1861 21.25 20.9375 21.25C20.6889 21.25 20.4504 21.1512 20.2746 20.9754C20.0988 20.7996 20 20.5611 20 20.3125V8.4375Z"
          fill="#000c29"/>
    <path d="M4.6875 2.5H25.3125C26.52 2.5 27.5 3.48 27.5 4.6875V25.3125C27.5 25.8927 27.2695 26.4491 26.8593 26.8593C26.4491 27.2695 25.8927 27.5 25.3125 27.5H4.6875C4.10734 27.5 3.55094 27.2695 3.1407 26.8593C2.73047 26.4491 2.5 25.8927 2.5 25.3125V4.6875C2.5 3.48 3.48 2.5 4.6875 2.5ZM4.375 4.6875V25.3125C4.375 25.485 4.515 25.625 4.6875 25.625H25.3125C25.3954 25.625 25.4749 25.5921 25.5335 25.5335C25.5921 25.4749 25.625 25.3954 25.625 25.3125V4.6875C25.625 4.60462 25.5921 4.52513 25.5335 4.46653C25.4749 4.40792 25.3954 4.375 25.3125 4.375H4.6875C4.60462 4.375 4.52513 4.40792 4.46653 4.46653C4.40792 4.52513 4.375 4.60462 4.375 4.6875Z"
          fill="#000c29"/>
</svg>
